<!-- pollen by Tippawan Sookruay (CC BY 3.0) -->
<!-- https://thenounproject.com/icon/pollen-3924343/ -->
<svg xmlns="http://www.w3.org/2000/svg" viewBox="0 0 64 80" x="0px" y="0px">
  <path
    d="M36,43H32a8.983,8.983,0,0,0-7,3.356V42.637a13.025,13.025,0,0,0,5.145-2.512,1,1,0,1,0-1.254-1.558A10.863,10.863,0,0,1,23,40.956V36A11.015,11.015,0,0,1,33,25.045V30a10.966,10.966,0,0,1-1.675,5.814,1,1,0,1,0,1.7,1.06A12.96,12.96,0,0,0,35,30V24a1,1,0,0,0-1-1,12.977,12.977,0,0,0-2,.17V19a1,1,0,0,0-1-1,12.757,12.757,0,0,0-2,.165V15a1,1,0,0,0-1-1,10.938,10.938,0,0,0-5.251,1.338A10.959,10.959,0,0,0,16,13a1,1,0,0,0,0,2,8.93,8.93,0,0,1,5,1.543,11.039,11.039,0,0,0-1.873,2.01A12.9,12.9,0,0,0,13,17a1,1,0,0,0-1,1v5.17A12.977,12.977,0,0,0,10,23a1,1,0,0,0-1,1v2a1,1,0,0,0,2,0v-.955A11.015,11.015,0,0,1,21,36v4.955A11.015,11.015,0,0,1,11,30a1,1,0,0,0-2,0A13.013,13.013,0,0,0,19,42.637v3.719A8.983,8.983,0,0,0,12,43a1,1,0,0,0,0,2,7.008,7.008,0,0,1,6.678,4.917l-4.123-2.749a1,1,0,1,0-1.109,1.664L16.7,51H16a7.008,7.008,0,0,1-7-7,1,1,0,0,0-2,0,9.01,9.01,0,0,0,9,9h3v8a1,1,0,0,0,2,0V42.949c.331.025.662.051,1,.051s.668-.017,1-.043V61a1,1,0,0,0,2,0V53h3a9.01,9.01,0,0,0,9-9A1,1,0,0,0,36,43ZM27,16.055v2.6a13.128,13.128,0,0,0-4.478,2.538A13.073,13.073,0,0,0,20.8,19.626,8.9,8.9,0,0,1,27,16.055ZM14,23.636V19.045A10.912,10.912,0,0,1,21.113,22.6a12.927,12.927,0,0,0-2.285,3.881A12.993,12.993,0,0,0,14,23.636ZM20.376,28.2A11.068,11.068,0,0,1,30,20.046v3.59a13.059,13.059,0,0,0-8,7.372A12.985,12.985,0,0,0,20.376,28.2ZM28,51h-.7l3.252-2.168a1,1,0,0,0-1.109-1.664l-4.123,2.749A7.008,7.008,0,0,1,32,45h2.929A7.011,7.011,0,0,1,28,51Z" />
  <circle cx="26" cy="5" r="1" />
  <circle cx="28" cy="10" r="1" />
  <circle cx="24" cy="12" r="1" />
  <circle cx="31" cy="3" r="1" />
  <circle cx="43" cy="4" r="1" />
  <circle cx="51" cy="17" r="1" />
  <circle cx="37" cy="21" r="1" />
  <circle cx="32" cy="12.999" r="1" />
  <circle cx="43" cy="28" r="1" />
  <path
    d="M48,11a1,1,0,0,0,1-1,1,1,0,0,1,2,0,2,2,0,0,1-2,2H36a1,1,0,0,0,0,2H49a4,4,0,0,0,4-4,3,3,0,0,0-6,0A1,1,0,0,0,48,11Z" />
  <path d="M50,20H41a1,1,0,0,0,0,2h9a2,2,0,0,1,2,2,1,1,0,0,1-2,0,1,1,0,0,0-2,0,3,3,0,0,0,6,0A4,4,0,0,0,50,20Z" />
  <path d="M37,16a1,1,0,0,0,0,2H47a1,1,0,0,0,0-2Z" />
  <path d="M20,10a3,3,0,1,0-3-3A3,3,0,0,0,20,10Zm0-4a1,1,0,1,1-1,1A1,1,0,0,1,20,6Z" />
  <path d="M37,10a3,3,0,1,0-3-3A3,3,0,0,0,37,10Zm0-4a1,1,0,1,1-1,1A1,1,0,0,1,37,6Z" />
  <path d="M58,13a3,3,0,1,0,3,3A3,3,0,0,0,58,13Zm0,4a1,1,0,1,1,1-1A1,1,0,0,1,58,17Z" />
  <path d="M43,32a3,3,0,1,0,3,3A3,3,0,0,0,43,32Zm0,4a1,1,0,1,1,1-1A1,1,0,0,1,43,36Z" />
</svg>